<svg xmlns="http://www.w3.org/2000/svg" xmlns:xlink="http://www.w3.org/1999/xlink" style="display: none">
    <symbol viewBox="0 0 20 20" id="icon-thread">
        <path rotate="90"
              d="M18 14.824v-2.324c0-1.933-1.567-3.5-3.5-3.5h-2c-0.828 0-1.5-0.672-1.5-1.5v-2.324c0.825-0.38 1.4-1.208 1.4-2.176 0-1.326-1.074-2.4-2.4-2.4s-2.4 1.074-2.4 2.4c0 0.967 0.576 1.796 1.4 2.176v2.324c0 0.828-0.672 1.5-1.5 1.5h-2c-1.933 0-3.5 1.567-3.5 3.5v2.324c-0.825 0.38-1.4 1.209-1.4 2.176 0 1.326 1.074 2.4 2.4 2.4s2.4-1.075 2.4-2.4c0-0.967-0.576-1.796-1.4-2.176v-2.324c0-0.828 0.672-1.5 1.5-1.5h2c0.539 0 1.044-0.132 1.5-0.35v4.174c-0.825 0.38-1.4 1.209-1.4 2.176 0 1.326 1.074 2.4 2.4 2.4s2.4-1.075 2.4-2.4c0-0.967-0.576-1.796-1.4-2.176v-4.174c0.456 0.218 0.961 0.35 1.5 0.35h2c0.828 0 1.5 0.672 1.5 1.5v2.324c-0.825 0.38-1.4 1.208-1.4 2.176 0 1.326 1.074 2.4 2.4 2.4s2.4-1.075 2.4-2.4c0-0.967-0.575-1.796-1.4-2.176zM10 1.615c0.764 0 1.384 0.619 1.384 1.385 0 0.764-0.62 1.385-1.384 1.385s-1.384-0.621-1.384-1.385c0-0.766 0.619-1.385 1.384-1.385zM3 18.385c-0.766 0-1.385-0.621-1.385-1.385 0-0.766 0.619-1.385 1.385-1.385 0.764 0 1.384 0.619 1.384 1.385 0 0.764-0.62 1.385-1.384 1.385zM10 18.385c-0.766 0-1.385-0.621-1.385-1.385 0-0.766 0.619-1.385 1.385-1.385 0.764 0 1.384 0.619 1.384 1.385 0 0.764-0.62 1.385-1.384 1.385zM17 18.385c-0.766 0-1.385-0.621-1.385-1.385 0-0.766 0.619-1.385 1.385-1.385 0.764 0 1.384 0.619 1.384 1.385 0 0.764-0.62 1.385-1.384 1.385z"></path>
    </symbol>
    <symbol viewBox="0 0 16 28" id="icon-lightbulb">
        <path d="M11.5 9c0 0.266-0.234 0.5-0.5 0.5s-0.5-0.234-0.5-0.5c0-1.078-1.672-1.5-2.5-1.5-0.266 0-0.5-0.234-0.5-0.5s0.234-0.5 0.5-0.5c1.453 0 3.5 0.766 3.5 2.5zM14 9c0-3.125-3.172-5-6-5s-6 1.875-6 5c0 1 0.406 2.047 1.062 2.812 0.297 0.344 0.641 0.672 0.953 1.031 1.109 1.328 2.047 2.891 2.203 4.656h3.563c0.156-1.766 1.094-3.328 2.203-4.656 0.313-0.359 0.656-0.688 0.953-1.031 0.656-0.766 1.062-1.813 1.062-2.812zM16 9c0 1.609-0.531 3-1.609 4.188s-2.5 2.859-2.625 4.531c0.453 0.266 0.734 0.766 0.734 1.281 0 0.375-0.141 0.734-0.391 1 0.25 0.266 0.391 0.625 0.391 1 0 0.516-0.266 0.984-0.703 1.266 0.125 0.219 0.203 0.484 0.203 0.734 0 1.016-0.797 1.5-1.703 1.5-0.406 0.906-1.313 1.5-2.297 1.5s-1.891-0.594-2.297-1.5c-0.906 0-1.703-0.484-1.703-1.5 0-0.25 0.078-0.516 0.203-0.734-0.438-0.281-0.703-0.75-0.703-1.266 0-0.375 0.141-0.734 0.391-1-0.25-0.266-0.391-0.625-0.391-1 0-0.516 0.281-1.016 0.734-1.281-0.125-1.672-1.547-3.344-2.625-4.531s-1.609-2.578-1.609-4.188c0-4.25 4.047-7 8-7s8 2.75 8 7z"></path>
    </symbol>
    <symbol viewBox="0 0 17 28" id="icon-question">
        <path d="M11 19.625v3.75c0 0.344-0.281 0.625-0.625 0.625h-3.75c-0.344 0-0.625-0.281-0.625-0.625v-3.75c0-0.344 0.281-0.625 0.625-0.625h3.75c0.344 0 0.625 0.281 0.625 0.625zM15.937 10.25c0 2.969-2.016 4.109-3.5 4.937-0.922 0.531-1.5 1.609-1.5 2.063v0c0 0.344-0.266 0.75-0.625 0.75h-3.75c-0.344 0-0.562-0.531-0.562-0.875v-0.703c0-1.891 1.875-3.516 3.25-4.141 1.203-0.547 1.703-1.062 1.703-2.063 0-0.875-1.141-1.656-2.406-1.656-0.703 0-1.344 0.219-1.687 0.453-0.375 0.266-0.75 0.641-1.672 1.797-0.125 0.156-0.313 0.25-0.484 0.25-0.141 0-0.266-0.047-0.391-0.125l-2.562-1.953c-0.266-0.203-0.328-0.547-0.156-0.828 1.687-2.797 4.062-4.156 7.25-4.156 3.344 0 7.094 2.672 7.094 6.25z"></path>
    </symbol>
    <symbol id="icon-book-alt" viewBox="0 0 22 22">
        <g stroke="currentColor" stroke-width="1.2" fill="none" fill-rule="evenodd">
            <path d="M10 3.75c0 0-2.5-2.5-10-2.5v15c7.578 0 10 2.5 10 2.5s2.422-2.5 10-2.5v-15c-7.5 0-10 2.5-10 2.5zM2.5 3.75c3.178 0.266 5.127 1.001 6.25 1.597v10.068c-1.123-0.593-3.072-1.328-6.25-1.597v-10.068zM17.5 13.818c-3.179 0.269-5.127 1.002-6.25 1.597v-10.068c1.123-0.596 3.071-1.331 6.25-1.597v10.068z"></path>
        </g>
    </symbol>
</svg>
